<?xml version="1.0" encoding="UTF-8"?>
<!DOCTYPE svg PUBLIC "-//W3C//DTD SVG 1.1//EN" "http://www.w3.org/Graphics/SVG/1.1/DTD/svg11.dtd">
<svg xmlns="http://www.w3.org/2000/svg" version="1.1" width="1024px" height="1024px" style="shape-rendering:geometricPrecision; text-rendering:geometricPrecision; image-rendering:optimizeQuality; fill-rule:evenodd; clip-rule:evenodd" xmlns:xlink="http://www.w3.org/1999/xlink">
<g><path style="opacity:0.996" fill="#cf1412" d="M 627.5,215.5 C 626.992,217.233 626.159,217.566 625,216.5C 623.691,218.686 623.524,220.853 624.5,223C 623.344,224.615 622.011,224.615 620.5,223C 621.654,222.086 621.487,221.253 620,220.5C 617.694,224.361 615.527,224.361 613.5,220.5C 611.729,221.035 611.396,221.869 612.5,223C 609.8,225.405 607.967,224.905 607,221.5C 606.308,222.025 605.808,222.692 605.5,223.5C 608.42,227.067 611.253,227.067 614,223.5C 616.651,225.65 619.151,227.983 621.5,230.5C 620.674,231.451 620.508,232.451 621,233.5C 621.667,232.167 622.333,232.167 623,233.5C 622.667,235.833 622.333,238.167 622,240.5C 623.397,237.693 625.231,237.193 627.5,239C 626.72,240.073 626.887,241.24 628,242.5C 628.333,242.167 628.667,241.833 629,241.5C 629.833,243 631,244.167 632.5,245C 631.5,245.333 630.5,245.667 629.5,246C 631.603,249.344 631.937,252.844 630.5,256.5C 629.698,255.048 629.198,253.382 629,251.5C 620.292,292.21 596.125,319.044 556.5,332C 530.854,337.92 505.188,337.92 479.5,332C 475.118,331.032 470.951,329.532 467,327.5C 466.415,328.998 466.915,329.998 468.5,330.5C 468.649,331.552 468.483,332.552 468,333.5C 466.092,331.262 464.092,329.929 462,329.5C 461.383,328.551 461.549,327.718 462.5,327C 462,326.833 461.5,326.667 461,326.5C 458.374,328.229 455.54,329.563 452.5,330.5C 453.167,331.5 453.833,332.5 454.5,333.5C 452.813,336.753 453.813,338.753 457.5,339.5C 456.289,340.72 456.289,341.887 457.5,343C 456.833,343.333 456.167,343.667 455.5,344C 457.007,344.837 457.507,346.004 457,347.5C 454.876,346.773 452.709,346.106 450.5,345.5C 449.24,347.353 449.24,349.186 450.5,351C 449.687,352.314 448.687,353.481 447.5,354.5C 448.376,355.251 449.376,355.751 450.5,356C 449.167,357.333 449.167,358.667 450.5,360C 452.129,360.585 453.629,361.419 455,362.5C 455.945,362.095 456.612,361.428 457,360.5C 459.289,363.09 458.789,364.923 455.5,366C 456.949,367.117 458.616,367.784 460.5,368C 459.833,368.333 459.167,368.667 458.5,369C 460.359,369.684 462.026,370.684 463.5,372C 461.099,372.805 461.266,373.638 464,374.5C 464.483,373.552 464.649,372.552 464.5,371.5C 465.675,371.281 466.675,371.614 467.5,372.5C 467.154,373.696 466.654,373.696 466,372.5C 465.383,373.449 465.549,374.282 466.5,375C 465.484,375.519 464.818,376.353 464.5,377.5C 465.472,379.305 466.639,380.972 468,382.5C 470.623,380.109 473.123,377.609 475.5,375C 474.346,374.086 474.513,373.253 476,372.5C 476.374,374.867 477.541,376.7 479.5,378C 479.389,379.722 478.889,379.888 478,378.5C 477.333,379.5 477.333,380.5 478,381.5C 478.914,380.346 479.747,380.513 480.5,382C 479.5,382.333 478.5,382.667 477.5,383C 477.275,385.319 475.942,387.319 473.5,389C 473.833,389.333 474.167,389.667 474.5,390C 473.5,390.333 472.5,390.667 471.5,391C 473.349,392.093 475.016,393.426 476.5,395C 475.317,397.155 475.65,399.155 477.5,401C 476.975,401.692 476.308,402.192 475.5,402.5C 475.446,401.47 475.112,400.303 474.5,399C 472.514,399.794 470.681,399.294 469,397.5C 468.5,398 468,398.5 467.5,399C 469.226,401.248 471.226,403.248 473.5,405C 471.633,405.711 470.133,405.211 469,403.5C 468.355,404.646 467.522,405.646 466.5,406.5C 466.259,408.335 466.759,410.001 468,411.5C 466.989,410.663 465.822,410.33 464.5,410.5C 464.33,409.178 464.663,408.011 465.5,407C 464.975,406.308 464.308,405.808 463.5,405.5C 462.059,406.865 460.726,408.365 459.5,410C 461.138,410.242 462.638,411.075 464,412.5C 464.333,412.167 464.667,411.833 465,411.5C 471.725,412.763 471.891,413.93 465.5,415C 472.894,415.109 480.227,415.276 487.5,415.5C 450.073,419.025 414.073,428.525 379.5,444C 378.512,456.086 378.178,468.253 378.5,480.5C 379.66,482.203 378.993,482.869 376.5,482.5C 376.667,470.162 376.5,457.829 376,445.5C 375.5,446.667 374.667,447.5 373.5,448C 374.167,450.333 374.833,452.667 375.5,455C 373.05,456.78 371.716,455.947 371.5,452.5C 371.608,451.558 371.941,450.725 372.5,450C 369.272,448.437 367.105,445.937 366,442.5C 365.16,445.464 364.16,445.797 363,443.5C 361.211,445.229 359.044,445.896 356.5,445.5C 356.649,444.448 356.483,443.448 356,442.5C 355.667,443.833 355.333,445.167 355,446.5C 353.383,445.464 353.216,444.297 354.5,443C 353.065,443.311 351.732,443.145 350.5,442.5C 349.887,443.98 349.554,445.313 349.5,446.5C 348.093,442.908 346.926,439.241 346,435.5C 345.781,442.271 345.948,448.938 346.5,455.5C 346.081,456.672 345.415,457.672 344.5,458.5C 343.337,451.55 342.671,444.55 342.5,437.5C 343.248,425.35 343.414,413.017 343,400.5C 342.333,399.167 341.667,399.167 341,400.5C 340.5,428.831 340.333,457.165 340.5,485.5C 340.167,485.5 339.833,485.5 339.5,485.5C 339.5,458.833 339.5,432.167 339.5,405.5C 339.5,405.167 339.5,404.833 339.5,404.5C 339.5,403.167 339.5,401.833 339.5,400.5C 330.137,399.045 321.137,396.379 312.5,392.5C 309.506,390 306.173,388 302.5,386.5C 269.265,362.666 255.765,330.333 262,289.5C 270.836,254.992 292.003,231.492 325.5,219C 349.939,211.085 374.606,210.419 399.5,217C 405.103,218.479 410.436,220.646 415.5,223.5C 428.612,179.084 457.945,152.251 503.5,143C 544.853,137.671 579.686,150.171 608,180.5C 616.078,191.325 622.578,202.992 627.5,215.5 Z"/></g>
<g><path style="opacity:0.024" fill="#f9f0dc" d="M 767.5,300.5 C 757.235,250.136 726.569,220.636 675.5,212C 659.075,209.225 643.075,210.392 627.5,215.5C 622.578,202.992 616.078,191.325 608,180.5C 579.686,150.171 544.853,137.671 503.5,143C 457.945,152.251 428.612,179.084 415.5,223.5C 410.436,220.646 405.103,218.479 399.5,217C 374.606,210.419 349.939,211.085 325.5,219C 292.003,231.492 270.836,254.992 262,289.5C 255.765,330.333 269.265,362.666 302.5,386.5C 301.448,386.649 300.448,386.483 299.5,386C 270.555,364.809 256.888,336.976 258.5,302.5C 259.785,282.611 266.618,264.944 279,249.5C 307.444,218.886 342.61,206.053 384.5,211C 394.511,212.796 404.011,215.962 413,220.5C 431.199,170.442 467.033,143.109 520.5,138.5C 559.727,139.862 591.227,155.862 615,186.5C 619.495,195.493 624.495,204.16 630,212.5C 667.714,203.442 701.881,210.608 732.5,234C 753.564,251.297 765.23,273.463 767.5,300.5 Z"/></g>
<g><path style="opacity:0.996" fill="#d01512" d="M 767.5,300.5 C 767.077,353.69 741.077,386.69 689.5,399.5C 689.5,421.5 689.5,443.5 689.5,465.5C 688.5,465.833 687.833,466.5 687.5,467.5C 681.273,470.73 675.607,474.73 670.5,479.5C 655.481,490.852 642.481,504.185 631.5,519.5C 630.512,520.795 629.512,522.128 628.5,523.5C 606.056,519.028 583.389,516.028 560.5,514.5C 559.833,514.5 559.167,514.5 558.5,514.5C 498.156,508.813 438.489,513.48 379.5,528.5C 378.167,527.5 376.833,526.5 375.5,525.5C 365.99,512.845 355.323,501.178 343.5,490.5C 342.075,489.078 341.075,487.411 340.5,485.5C 340.333,457.165 340.5,428.831 341,400.5C 341.667,399.167 342.333,399.167 343,400.5C 343.414,413.017 343.248,425.35 342.5,437.5C 342.671,444.55 343.337,451.55 344.5,458.5C 345.415,457.672 346.081,456.672 346.5,455.5C 345.948,448.938 345.781,442.271 346,435.5C 346.926,439.241 348.093,442.908 349.5,446.5C 349.554,445.313 349.887,443.98 350.5,442.5C 351.732,443.145 353.065,443.311 354.5,443C 353.216,444.297 353.383,445.464 355,446.5C 355.333,445.167 355.667,443.833 356,442.5C 356.483,443.448 356.649,444.448 356.5,445.5C 359.044,445.896 361.211,445.229 363,443.5C 364.16,445.797 365.16,445.464 366,442.5C 367.105,445.937 369.272,448.437 372.5,450C 371.941,450.725 371.608,451.558 371.5,452.5C 371.716,455.947 373.05,456.78 375.5,455C 374.833,452.667 374.167,450.333 373.5,448C 374.667,447.5 375.5,446.667 376,445.5C 376.5,457.829 376.667,470.162 376.5,482.5C 378.993,482.869 379.66,482.203 378.5,480.5C 457.006,444.308 537.006,440.808 618.5,470C 628.126,473.487 637.459,477.654 646.5,482.5C 647.666,470.514 647.833,458.514 647,446.5C 596.575,422.412 543.408,412.079 487.5,415.5C 480.227,415.276 472.894,415.109 465.5,415C 471.891,413.93 471.725,412.763 465,411.5C 464.667,411.833 464.333,412.167 464,412.5C 462.638,411.075 461.138,410.242 459.5,410C 460.726,408.365 462.059,406.865 463.5,405.5C 464.308,405.808 464.975,406.308 465.5,407C 464.663,408.011 464.33,409.178 464.5,410.5C 465.822,410.33 466.989,410.663 468,411.5C 466.759,410.001 466.259,408.335 466.5,406.5C 467.522,405.646 468.355,404.646 469,403.5C 470.133,405.211 471.633,405.711 473.5,405C 471.226,403.248 469.226,401.248 467.5,399C 468,398.5 468.5,398 469,397.5C 470.681,399.294 472.514,399.794 474.5,399C 475.112,400.303 475.446,401.47 475.5,402.5C 476.308,402.192 476.975,401.692 477.5,401C 475.65,399.155 475.317,397.155 476.5,395C 475.016,393.426 473.349,392.093 471.5,391C 472.5,390.667 473.5,390.333 474.5,390C 474.167,389.667 473.833,389.333 473.5,389C 475.942,387.319 477.275,385.319 477.5,383C 478.5,382.667 479.5,382.333 480.5,382C 479.747,380.513 478.914,380.346 478,381.5C 477.333,380.5 477.333,379.5 478,378.5C 478.889,379.888 479.389,379.722 479.5,378C 477.541,376.7 476.374,374.867 476,372.5C 474.513,373.253 474.346,374.086 475.5,375C 473.123,377.609 470.623,380.109 468,382.5C 466.639,380.972 465.472,379.305 464.5,377.5C 464.818,376.353 465.484,375.519 466.5,375C 465.549,374.282 465.383,373.449 466,372.5C 466.654,373.696 467.154,373.696 467.5,372.5C 466.675,371.614 465.675,371.281 464.5,371.5C 464.649,372.552 464.483,373.552 464,374.5C 461.266,373.638 461.099,372.805 463.5,372C 462.026,370.684 460.359,369.684 458.5,369C 459.167,368.667 459.833,368.333 460.5,368C 458.616,367.784 456.949,367.117 455.5,366C 458.789,364.923 459.289,363.09 457,360.5C 456.612,361.428 455.945,362.095 455,362.5C 453.629,361.419 452.129,360.585 450.5,360C 449.167,358.667 449.167,357.333 450.5,356C 449.376,355.751 448.376,355.251 447.5,354.5C 448.687,353.481 449.687,352.314 450.5,351C 449.24,349.186 449.24,347.353 450.5,345.5C 452.709,346.106 454.876,346.773 457,347.5C 457.507,346.004 457.007,344.837 455.5,344C 456.167,343.667 456.833,343.333 457.5,343C 456.289,341.887 456.289,340.72 457.5,339.5C 453.813,338.753 452.813,336.753 454.5,333.5C 453.833,332.5 453.167,331.5 452.5,330.5C 455.54,329.563 458.374,328.229 461,326.5C 461.5,326.667 462,326.833 462.5,327C 461.549,327.718 461.383,328.551 462,329.5C 464.092,329.929 466.092,331.262 468,333.5C 468.483,332.552 468.649,331.552 468.5,330.5C 494.227,352.517 523.893,360.351 557.5,354C 592.897,346.604 616.397,325.77 628,291.5C 631.204,279.976 632.037,268.309 630.5,256.5C 631.937,252.844 631.603,249.344 629.5,246C 630.5,245.667 631.5,245.333 632.5,245C 631,244.167 629.833,243 629,241.5C 628.667,241.833 628.333,242.167 628,242.5C 626.887,241.24 626.72,240.073 627.5,239C 625.231,237.193 623.397,237.693 622,240.5C 622.333,238.167 622.667,235.833 623,233.5C 622.333,232.167 621.667,232.167 621,233.5C 620.508,232.451 620.674,231.451 621.5,230.5C 619.151,227.983 616.651,225.65 614,223.5C 611.253,227.067 608.42,227.067 605.5,223.5C 605.808,222.692 606.308,222.025 607,221.5C 607.967,224.905 609.8,225.405 612.5,223C 611.396,221.869 611.729,221.035 613.5,220.5C 615.527,224.361 617.694,224.361 620,220.5C 621.487,221.253 621.654,222.086 620.5,223C 622.011,224.615 623.344,224.615 624.5,223C 623.524,220.853 623.691,218.686 625,216.5C 626.159,217.566 626.992,217.233 627.5,215.5C 643.075,210.392 659.075,209.225 675.5,212C 726.569,220.636 757.235,250.136 767.5,300.5 Z M 509.5,416.5 C 526.865,418.113 544.531,419.613 562.5,421C 573.484,423.328 584.484,425.828 595.5,428.5C 598.817,430.721 602.483,431.888 606.5,432C 609.884,434.937 613.884,436.271 618.5,436C 619.833,436.667 620.833,437.667 621.5,439C 627.348,440.194 632.848,442.027 638,444.5C 640.378,446.945 643.211,448.778 646.5,450C 645.167,451.333 643.833,452.667 642.5,454C 643.434,460.905 644.767,467.738 646.5,474.5C 641.684,476.045 637.351,475.212 633.5,472C 626.295,469.775 619.295,467.108 612.5,464C 603.826,461.331 595.159,458.664 586.5,456C 579.951,455.317 573.618,453.984 567.5,452C 558.401,451.123 549.401,449.789 540.5,448C 522.857,446.529 505.19,446.196 487.5,447C 470.648,449.225 453.981,452.225 437.5,456C 428.779,458.455 420.112,461.122 411.5,464C 403.221,468.301 394.554,471.801 385.5,474.5C 384.558,474.392 383.725,474.059 383,473.5C 381.08,468.272 381.246,463.106 383.5,458C 383.397,456.439 383.063,454.939 382.5,453.5C 383.5,452.167 384.5,450.833 385.5,449.5C 384.691,447.929 384.357,446.262 384.5,444.5C 387.908,445.172 390.575,444.172 392.5,441.5C 395.447,440.679 398.447,440.179 401.5,440C 404.098,437.041 407.432,435.707 411.5,436C 413.116,435.385 414.449,434.385 415.5,433C 425.458,430.172 435.458,427.505 445.5,425C 453,424.48 460.333,423.147 467.5,421C 481.725,420.219 495.725,418.719 509.5,416.5 Z"/></g>
<g><path style="opacity:0.012" fill="#fbf7e5" d="M 630.5,256.5 C 632.037,268.309 631.204,279.976 628,291.5C 616.397,325.77 592.897,346.604 557.5,354C 523.893,360.351 494.227,352.517 468.5,330.5C 466.915,329.998 466.415,328.998 467,327.5C 470.951,329.532 475.118,331.032 479.5,332C 505.188,337.92 530.854,337.92 556.5,332C 596.125,319.044 620.292,292.21 629,251.5C 629.198,253.382 629.698,255.048 630.5,256.5 Z M 597.5,314.5 C 601.698,314.884 603.532,317.218 603,321.5C 604.167,322.667 605.333,323.833 606.5,325C 605.234,325.309 604.067,325.809 603,326.5C 601.251,328.753 599.751,331.086 598.5,333.5C 595.728,333.595 593.728,334.929 592.5,337.5C 584.003,342.777 575.003,346.944 565.5,350C 555.514,350.802 545.681,351.969 536,353.5C 526.84,352.565 517.673,351.398 508.5,350C 499.625,344.821 490.292,340.488 480.5,337C 482.101,336.727 483.601,336.227 485,335.5C 489.08,336.3 493.247,336.8 497.5,337C 496.167,337.667 496.167,338.333 497.5,339C 521.682,340.245 545.349,337.579 568.5,331C 574.262,328.481 579.928,325.814 585.5,323C 587.18,320.602 589.514,319.435 592.5,319.5C 592.5,318.5 592.5,317.5 592.5,316.5C 594.698,316.88 596.365,316.213 597.5,314.5 Z"/></g>
<g><path style="opacity:0.04" fill="#f8ebd7" d="M 302.5,386.5 C 306.173,388 309.506,390 312.5,392.5C 308.365,391.672 305.032,389.672 302.5,386.5 Z"/></g>
<g><path style="opacity:0.025" fill="#fbf6e3" d="M 312.5,392.5 C 321.137,396.379 330.137,399.045 339.5,400.5C 339.5,401.833 339.5,403.167 339.5,404.5C 334.004,401.276 328.004,399.11 321.5,398C 319.474,396.041 317.308,395.207 315,395.5C 313.583,394.922 312.75,393.922 312.5,392.5 Z"/></g>
<g><path style="opacity:0.029" fill="#faf3e0" d="M 487.5,415.5 C 543.408,412.079 596.575,422.412 647,446.5C 647.833,458.514 647.666,470.514 646.5,482.5C 637.459,477.654 628.126,473.487 618.5,470C 537.006,440.808 457.006,444.308 378.5,480.5C 378.178,468.253 378.512,456.086 379.5,444C 414.073,428.525 450.073,419.025 487.5,415.5 Z M 509.5,416.5 C 495.725,418.719 481.725,420.219 467.5,421C 460.333,423.147 453,424.48 445.5,425C 435.458,427.505 425.458,430.172 415.5,433C 414.449,434.385 413.116,435.385 411.5,436C 407.432,435.707 404.098,437.041 401.5,440C 398.447,440.179 395.447,440.679 392.5,441.5C 390.575,444.172 387.908,445.172 384.5,444.5C 384.357,446.262 384.691,447.929 385.5,449.5C 384.5,450.833 383.5,452.167 382.5,453.5C 383.063,454.939 383.397,456.439 383.5,458C 381.246,463.106 381.08,468.272 383,473.5C 383.725,474.059 384.558,474.392 385.5,474.5C 394.554,471.801 403.221,468.301 411.5,464C 420.112,461.122 428.779,458.455 437.5,456C 453.981,452.225 470.648,449.225 487.5,447C 505.19,446.196 522.857,446.529 540.5,448C 549.401,449.789 558.401,451.123 567.5,452C 573.618,453.984 579.951,455.317 586.5,456C 595.159,458.664 603.826,461.331 612.5,464C 619.295,467.108 626.295,469.775 633.5,472C 637.351,475.212 641.684,476.045 646.5,474.5C 644.767,467.738 643.434,460.905 642.5,454C 643.833,452.667 645.167,451.333 646.5,450C 643.211,448.778 640.378,446.945 638,444.5C 632.848,442.027 627.348,440.194 621.5,439C 620.833,437.667 619.833,436.667 618.5,436C 613.884,436.271 609.884,434.937 606.5,432C 602.483,431.888 598.817,430.721 595.5,428.5C 584.484,425.828 573.484,423.328 562.5,421C 544.531,419.613 526.865,418.113 509.5,416.5 Z"/></g>
<g><path style="opacity:0.038" fill="#fbf8de" d="M 339.5,405.5 C 339.5,432.167 339.5,458.833 339.5,485.5C 319.479,466.976 298.145,450.143 275.5,435C 271.018,432.675 266.518,430.508 262,428.5C 259.5,428.333 258.333,429.5 258.5,432C 259.201,434.38 260.367,436.547 262,438.5C 290.293,471.796 318.96,504.796 348,537.5C 351.563,544.771 349.396,547.938 341.5,547C 306.872,518.041 272.539,488.708 238.5,459C 235.584,456.657 233.25,456.99 231.5,460C 259.165,494.132 287.665,527.632 317,560.5C 321.275,565.34 321.442,570.173 317.5,575C 314.366,575.79 311.366,575.457 308.5,574C 276.066,543.631 243.066,513.964 209.5,485C 207.866,484.506 206.199,484.34 204.5,484.5C 204.372,486.655 204.872,488.655 206,490.5C 233.29,524.125 260.956,557.458 289,590.5C 294.847,598.28 293.014,602.447 283.5,603C 261.545,582.05 239.212,561.383 216.5,541C 207.87,534.039 199.537,526.705 191.5,519C 188.077,515.872 184.243,513.372 180,511.5C 177.836,511.666 176.669,512.833 176.5,515C 177.299,519.1 178.799,522.934 181,526.5C 194.216,547.871 208.382,568.538 223.5,588.5C 221.629,588.141 220.129,587.141 219,585.5C 203.431,564.943 189.098,543.61 176,521.5C 172.508,511.658 175.675,508.492 185.5,512C 216.871,538.714 247.538,566.047 277.5,594C 278.448,594.483 279.448,594.649 280.5,594.5C 281.031,597.779 283.031,599.113 286.5,598.5C 286.656,595.934 286.322,593.434 285.5,591C 282.887,587.618 280.387,584.118 278,580.5C 252.143,550.485 226.976,519.818 202.5,488.5C 202.663,482.499 205.663,480.999 211.5,484C 243.859,513.029 276.192,542.029 308.5,571C 319.332,573.244 321.332,569.744 314.5,560.5C 286.518,528.846 258.851,496.846 231.5,464.5C 227.384,457.147 229.384,454.314 237.5,456C 267.1,480.301 296.1,505.301 324.5,531C 329.696,533.52 334.363,536.853 338.5,541C 340.459,541.931 342.459,542.764 344.5,543.5C 345.631,541.926 345.798,540.259 345,538.5C 328.182,517.665 310.515,497.331 292,477.5C 279.261,462.597 267.094,447.264 255.5,431.5C 256.19,428.646 258.023,426.979 261,426.5C 266.017,427.093 270.517,428.926 274.5,432C 296.586,446.618 317.42,462.784 337,480.5C 338.119,472.573 338.619,464.573 338.5,456.5C 338.35,445.49 338.016,435.657 337.5,427C 338.151,419.734 338.818,412.568 339.5,405.5 Z"/></g>
<g><path style="opacity:0.996" fill="#5ab9d1" d="M 670.5,479.5 C 656.737,492.924 643.737,506.924 631.5,521.5C 631.5,520.833 631.5,520.167 631.5,519.5C 642.481,504.185 655.481,490.852 670.5,479.5 Z"/></g>
<g><path style="opacity:0.996" fill="#fcb816" d="M 508.5,749.5 C 501.5,756.833 494.5,764.167 487.5,771.5C 455.5,738.332 424,704.665 393,670.5C 387.802,664.967 382.302,659.8 376.5,655C 372.708,653.219 368.708,652.386 364.5,652.5C 357.454,653.68 350.454,655.18 343.5,657C 327.289,659.198 312.289,655.864 298.5,647C 280.082,634.511 263.248,620.011 248,603.5C 226.932,580.939 208.599,556.605 193,530.5C 221.568,557.739 250.735,584.239 280.5,610C 294.169,611.996 300.336,606.163 299,592.5C 298.333,591.167 297.667,589.833 297,588.5C 279.358,568.538 262.192,548.204 245.5,527.5C 245.833,527.167 246.167,526.833 246.5,526.5C 264.656,543.822 282.99,560.989 301.5,578C 308.145,583.998 315.479,584.998 323.5,581C 330.894,573.999 331.394,566.499 325,558.5C 307.461,539.297 290.295,519.797 273.5,500C 274.167,499.333 274.833,499.333 275.5,500C 294.979,517.569 314.646,534.902 334.5,552C 346.461,558.513 354.461,555.346 358.5,542.5C 357.472,537.627 355.305,533.294 352,529.5C 328.129,503.297 304.629,476.797 281.5,450C 319.321,474.81 351.821,505.644 379,542.5C 385.64,552.112 390.973,562.445 395,573.5C 397.85,581.732 398.183,590.065 396,598.5C 393.609,604.949 390.942,611.282 388,617.5C 386.671,625.848 388.338,633.515 393,640.5C 430.714,677.891 469.214,714.224 508.5,749.5 Z"/></g>
<g><path style="opacity:0.961" fill="#fab223" d="M 339.5,485.5 C 339.833,485.5 340.167,485.5 340.5,485.5C 341.075,487.411 342.075,489.078 343.5,490.5C 325.972,475.478 307.972,460.978 289.5,447C 280.916,441.418 272.083,436.252 263,431.5C 262.5,431.833 262,432.167 261.5,432.5C 290.021,468.529 319.855,503.529 351,537.5C 353.509,546.661 350.009,550.495 340.5,549C 337.228,547.392 334.228,545.392 331.5,543C 299.833,515.333 268.167,487.667 236.5,460C 235.668,459.312 235.002,459.479 234.5,460.5C 264.475,495.129 293.975,530.129 323,565.5C 324.138,575.687 319.638,579.52 309.5,577C 276.167,547.333 242.833,517.667 209.5,488C 208.833,487.333 208.167,487.333 207.5,488C 234.912,522.749 263.078,556.916 292,590.5C 296.398,598.37 294.231,603.37 285.5,605.5C 283.701,605.423 282.034,604.923 280.5,604C 249.064,573.558 216.73,544.225 183.5,516C 181.854,514.599 180.187,514.432 178.5,515.5C 201.845,559.299 231.845,598.132 268.5,632C 281.875,644.692 297.208,654.359 314.5,661C 325.026,663.439 335.693,664.106 346.5,663C 352.377,660.985 358.377,659.485 364.5,658.5C 368.45,658.761 372.117,659.928 375.5,662C 411.739,699.735 447.405,737.902 482.5,776.5C 482.5,777.167 482.167,777.5 481.5,777.5C 464.108,760.11 447.108,742.444 430.5,724.5C 416.896,709.057 403.063,693.724 389,678.5C 383.802,672.967 378.302,667.8 372.5,663C 370.13,661.964 367.63,661.464 365,661.5C 354.775,663.815 344.442,665.482 334,666.5C 319.464,665.766 305.964,661.6 293.5,654C 287.01,649.669 280.676,645.169 274.5,640.5C 256.133,624.467 239.133,607.133 223.5,588.5C 208.382,568.538 194.216,547.871 181,526.5C 178.799,522.934 177.299,519.1 176.5,515C 176.669,512.833 177.836,511.666 180,511.5C 184.243,513.372 188.077,515.872 191.5,519C 199.537,526.705 207.87,534.039 216.5,541C 239.212,561.383 261.545,582.05 283.5,603C 293.014,602.447 294.847,598.28 289,590.5C 260.956,557.458 233.29,524.125 206,490.5C 204.872,488.655 204.372,486.655 204.5,484.5C 206.199,484.34 207.866,484.506 209.5,485C 243.066,513.964 276.066,543.631 308.5,574C 311.366,575.457 314.366,575.79 317.5,575C 321.442,570.173 321.275,565.34 317,560.5C 287.665,527.632 259.165,494.132 231.5,460C 233.25,456.99 235.584,456.657 238.5,459C 272.539,488.708 306.872,518.041 341.5,547C 349.396,547.938 351.563,544.771 348,537.5C 318.96,504.796 290.293,471.796 262,438.5C 260.367,436.547 259.201,434.38 258.5,432C 258.333,429.5 259.5,428.333 262,428.5C 266.518,430.508 271.018,432.675 275.5,435C 298.145,450.143 319.479,466.976 339.5,485.5 Z"/></g>
<g><path style="opacity:0.949" fill="#fab325" d="M 375.5,525.5 C 376.833,526.5 378.167,527.5 379.5,528.5C 388.854,541.198 396.688,554.865 403,569.5C 406.5,578.999 407.167,588.665 405,598.5C 402.072,607.118 399.239,615.784 396.5,624.5C 396.761,628.45 397.928,632.117 400,635.5C 436.689,672.688 474.522,708.688 513.5,743.5C 513.167,744.167 512.833,744.833 512.5,745.5C 489.67,724.171 466.67,703.004 443.5,682C 427.64,667.473 412.473,652.306 398,636.5C 394.699,630.922 393.699,624.922 395,618.5C 405.955,598.68 406.289,578.68 396,558.5C 389.145,547.444 382.311,536.444 375.5,525.5 Z"/></g>
<g><path style="opacity:0.973" fill="#3b9bb8" d="M 550.5,775.5 C 549.833,775.5 549.5,775.833 549.5,776.5C 547.5,777.833 545.833,779.5 544.5,781.5C 537.167,790.833 529.833,800.167 522.5,809.5C 520.367,811.091 518.701,813.091 517.5,815.5C 516.833,815.5 516.5,815.833 516.5,816.5C 501.197,835.312 486.031,854.312 471,873.5C 459.122,885.494 445.622,887.66 430.5,880C 417.938,868.964 415.105,855.798 422,840.5C 424.333,837.5 426.667,834.5 429,831.5C 447.066,813.936 464.566,795.936 481.5,777.5C 482.167,777.5 482.5,777.167 482.5,776.5C 484.5,775.167 486.167,773.5 487.5,771.5C 494.5,764.167 501.5,756.833 508.5,749.5C 510.167,748.5 511.5,747.167 512.5,745.5C 512.833,744.833 513.167,744.167 513.5,743.5C 546.226,710.609 578.059,676.943 609,642.5C 612.786,636.739 614.619,630.405 614.5,623.5C 612.436,613.476 610.269,603.476 608,593.5C 607.236,567.957 614.069,544.623 628.5,523.5C 629.512,522.128 630.512,520.795 631.5,519.5C 631.5,520.167 631.5,520.833 631.5,521.5C 622.216,535.735 615.383,551.068 611,567.5C 609.536,576.12 609.202,584.787 610,593.5C 612.177,603.536 614.344,613.536 616.5,623.5C 616.619,630.405 614.786,636.739 611,642.5C 590.8,665.545 570.133,688.212 549,710.5C 505.751,754.36 463.418,799.026 422,844.5C 417.6,856.933 420.1,867.767 429.5,877C 445.087,886.032 458.921,883.865 471,870.5C 524.568,802.927 578.901,735.927 634,669.5C 639.767,662.2 647.267,658.533 656.5,658.5C 677.812,663.131 698.145,660.631 717.5,651C 751.886,628.939 776.386,598.772 791,560.5C 800.075,535.996 800.742,511.329 793,486.5C 778.389,459.78 755.889,448.947 725.5,454C 719.332,455.056 713.332,456.723 707.5,459C 700.917,462.128 694.25,464.961 687.5,467.5C 687.833,466.5 688.5,465.833 689.5,465.5C 704.857,456.867 721.357,451.867 739,450.5C 768.632,451.798 788.298,466.464 798,494.5C 802.194,509.749 802.528,525.082 799,540.5C 789.955,577.104 771.789,608.271 744.5,634C 730.921,647.127 714.921,656.127 696.5,661C 691.032,661.851 685.532,662.351 680,662.5C 669.86,661.211 659.693,660.711 649.5,661C 646.339,662.413 643.339,664.08 640.5,666C 609.887,702.102 579.887,738.602 550.5,775.5 Z"/></g>
<g><path style="opacity:0.996" fill="#fcdd7b" d="M 343.5,490.5 C 355.323,501.178 365.99,512.845 375.5,525.5C 382.311,536.444 389.145,547.444 396,558.5C 406.289,578.68 405.955,598.68 395,618.5C 393.699,624.922 394.699,630.922 398,636.5C 412.473,652.306 427.64,667.473 443.5,682C 466.67,703.004 489.67,724.171 512.5,745.5C 511.5,747.167 510.167,748.5 508.5,749.5C 469.214,714.224 430.714,677.891 393,640.5C 388.338,633.515 386.671,625.848 388,617.5C 390.942,611.282 393.609,604.949 396,598.5C 398.183,590.065 397.85,581.732 395,573.5C 390.973,562.445 385.64,552.112 379,542.5C 351.821,505.644 319.321,474.81 281.5,450C 304.629,476.797 328.129,503.297 352,529.5C 355.305,533.294 357.472,537.627 358.5,542.5C 354.461,555.346 346.461,558.513 334.5,552C 314.646,534.902 294.979,517.569 275.5,500C 274.833,499.333 274.167,499.333 273.5,500C 290.295,519.797 307.461,539.297 325,558.5C 331.394,566.499 330.894,573.999 323.5,581C 315.479,584.998 308.145,583.998 301.5,578C 282.99,560.989 264.656,543.822 246.5,526.5C 246.167,526.833 245.833,527.167 245.5,527.5C 262.192,548.204 279.358,568.538 297,588.5C 297.667,589.833 298.333,591.167 299,592.5C 300.336,606.163 294.169,611.996 280.5,610C 250.735,584.239 221.568,557.739 193,530.5C 208.599,556.605 226.932,580.939 248,603.5C 263.248,620.011 280.082,634.511 298.5,647C 312.289,655.864 327.289,659.198 343.5,657C 350.454,655.18 357.454,653.68 364.5,652.5C 368.708,652.386 372.708,653.219 376.5,655C 382.302,659.8 387.802,664.967 393,670.5C 424,704.665 455.5,738.332 487.5,771.5C 486.167,773.5 484.5,775.167 482.5,776.5C 447.405,737.902 411.739,699.735 375.5,662C 372.117,659.928 368.45,658.761 364.5,658.5C 358.377,659.485 352.377,660.985 346.5,663C 335.693,664.106 325.026,663.439 314.5,661C 297.208,654.359 281.875,644.692 268.5,632C 231.845,598.132 201.845,559.299 178.5,515.5C 180.187,514.432 181.854,514.599 183.5,516C 216.73,544.225 249.064,573.558 280.5,604C 282.034,604.923 283.701,605.423 285.5,605.5C 294.231,603.37 296.398,598.37 292,590.5C 263.078,556.916 234.912,522.749 207.5,488C 208.167,487.333 208.833,487.333 209.5,488C 242.833,517.667 276.167,547.333 309.5,577C 319.638,579.52 324.138,575.687 323,565.5C 293.975,530.129 264.475,495.129 234.5,460.5C 235.002,459.479 235.668,459.312 236.5,460C 268.167,487.667 299.833,515.333 331.5,543C 334.228,545.392 337.228,547.392 340.5,549C 350.009,550.495 353.509,546.661 351,537.5C 319.855,503.529 290.021,468.529 261.5,432.5C 262,432.167 262.5,431.833 263,431.5C 272.083,436.252 280.916,441.418 289.5,447C 307.972,460.978 325.972,475.478 343.5,490.5 Z"/></g>
<g><path style="opacity:0.045" fill="#f8f4de" d="M 558.5,514.5 C 529.501,514.083 500.334,514.083 471,514.5C 447.735,517.055 424.568,520.555 401.5,525C 395.675,526.352 390.008,528.019 384.5,530C 386.841,536.514 390.341,542.347 395,547.5C 398.941,555.716 402.608,564.049 406,572.5C 409.413,588.28 407.413,603.28 400,617.5C 397.694,623.033 398.027,628.367 401,633.5C 411.498,644.997 422.331,656.164 433.5,667C 460.06,691.419 486.727,715.586 513.5,739.5C 518.78,735.722 523.614,731.389 528,726.5C 547.941,704.89 568.274,683.557 589,662.5C 595.374,655.794 601.374,648.794 607,641.5C 608.711,639.044 610.044,636.377 611,633.5C 611.667,627.5 611.667,621.5 611,615.5C 603.16,591.854 604.16,568.854 614,546.5C 617.5,539.5 621,532.5 624.5,525.5C 618.906,523.788 613.239,522.288 607.5,521C 591.612,519.335 575.946,517.169 560.5,514.5C 583.389,516.028 606.056,519.028 628.5,523.5C 614.069,544.623 607.236,567.957 608,593.5C 610.269,603.476 612.436,613.476 614.5,623.5C 614.619,630.405 612.786,636.739 609,642.5C 578.059,676.943 546.226,710.609 513.5,743.5C 474.522,708.688 436.689,672.688 400,635.5C 397.928,632.117 396.761,628.45 396.5,624.5C 399.239,615.784 402.072,607.118 405,598.5C 407.167,588.665 406.5,578.999 403,569.5C 396.688,554.865 388.854,541.198 379.5,528.5C 438.489,513.48 498.156,508.813 558.5,514.5 Z M 558.5,514.5 C 559.167,514.5 559.833,514.5 560.5,514.5C 575.946,517.169 591.612,519.335 607.5,521C 613.239,522.288 618.906,523.788 624.5,525.5C 621,532.5 617.5,539.5 614,546.5C 604.16,568.854 603.16,591.854 611,615.5C 611.667,621.5 611.667,627.5 611,633.5C 610.044,636.377 608.711,639.044 607,641.5C 601.374,648.794 595.374,655.794 589,662.5C 568.274,683.557 547.941,704.89 528,726.5C 523.614,731.389 518.78,735.722 513.5,739.5C 486.727,715.586 460.06,691.419 433.5,667C 422.331,656.164 411.498,644.997 401,633.5C 398.027,628.367 397.694,623.033 400,617.5C 407.413,603.28 409.413,588.28 406,572.5C 402.608,564.049 398.941,555.716 395,547.5C 390.341,542.347 386.841,536.514 384.5,530C 390.008,528.019 395.675,526.352 401.5,525C 424.568,520.555 447.735,517.055 471,514.5C 500.334,514.083 529.501,514.083 558.5,514.5 Z"/></g>
<g><path style="opacity:0.04" fill="#fcf9e1" d="M 223.5,588.5 C 239.133,607.133 256.133,624.467 274.5,640.5C 273.448,640.649 272.448,640.483 271.5,640C 262.333,631.5 253.167,623 244,614.5C 238.305,608.141 232.638,601.808 227,595.5C 226.011,593.03 224.845,590.697 223.5,588.5 Z"/></g>
<g><path style="opacity:0.04" fill="#fbf9e3" d="M 274.5,640.5 C 280.676,645.169 287.01,649.669 293.5,654C 305.964,661.6 319.464,665.766 334,666.5C 344.442,665.482 354.775,663.815 365,661.5C 367.63,661.464 370.13,661.964 372.5,663C 378.302,667.8 383.802,672.967 389,678.5C 403.063,693.724 416.896,709.057 430.5,724.5C 411.11,704.94 391.777,685.107 372.5,665C 364.641,662.835 356.975,663.502 349.5,667C 319.788,670.841 294.788,662.008 274.5,640.5 Z"/></g>
<g><path style="opacity:0.048" fill="#f7f8e4" d="M 767.5,300.5 C 770.506,343.962 752.172,375.128 712.5,394C 706.361,396.602 700.028,398.602 693.5,400C 692.874,400.75 692.374,401.584 692,402.5C 691.893,420.776 691.893,439.11 692,457.5C 692.419,458.672 693.085,459.672 694,460.5C 715.729,448.691 738.563,445.858 762.5,452C 786.481,463.667 799.981,482.834 803,509.5C 803.074,542.273 794.074,572.273 776,599.5C 759.562,625.937 737.395,646.103 709.5,660C 693.741,664.258 677.741,665.424 661.5,663.5C 650.82,661.446 642.32,664.779 636,673.5C 608.473,707.022 580.973,740.522 553.5,774C 572.002,791.922 591.335,808.922 611.5,825C 629.123,839.204 632.29,856.037 621,875.5C 608.4,887.298 594.233,889.798 578.5,883C 576.33,881.414 573.996,880.08 571.5,879C 570.748,878.329 570.414,877.496 570.5,876.5C 583.784,885.706 597.784,886.873 612.5,880C 623.531,871.921 627.697,861.087 625,847.5C 622.455,840.244 618.288,834.077 612.5,829C 591.961,810.957 571.295,793.124 550.5,775.5C 579.887,738.602 609.887,702.102 640.5,666C 643.339,664.08 646.339,662.413 649.5,661C 659.693,660.711 669.86,661.211 680,662.5C 685.532,662.351 691.032,661.851 696.5,661C 714.921,656.127 730.921,647.127 744.5,634C 771.789,608.271 789.955,577.104 799,540.5C 802.528,525.082 802.194,509.749 798,494.5C 788.298,466.464 768.632,451.798 739,450.5C 721.357,451.867 704.857,456.867 689.5,465.5C 689.5,443.5 689.5,421.5 689.5,399.5C 741.077,386.69 767.077,353.69 767.5,300.5 Z"/></g>
<g><path style="opacity:0.996" fill="#a7e1ef" d="M 631.5,521.5 C 643.737,506.924 656.737,492.924 670.5,479.5C 675.607,474.73 681.273,470.73 687.5,467.5C 694.25,464.961 700.917,462.128 707.5,459C 713.332,456.723 719.332,455.056 725.5,454C 755.889,448.947 778.389,459.78 793,486.5C 800.742,511.329 800.075,535.996 791,560.5C 776.386,598.772 751.886,628.939 717.5,651C 698.145,660.631 677.812,663.131 656.5,658.5C 647.267,658.533 639.767,662.2 634,669.5C 578.901,735.927 524.568,802.927 471,870.5C 458.921,883.865 445.087,886.032 429.5,877C 420.1,867.767 417.6,856.933 422,844.5C 463.418,799.026 505.751,754.36 549,710.5C 570.133,688.212 590.8,665.545 611,642.5C 614.786,636.739 616.619,630.405 616.5,623.5C 614.344,613.536 612.177,603.536 610,593.5C 609.202,584.787 609.536,576.12 611,567.5C 615.383,551.068 622.216,535.735 631.5,521.5 Z"/></g>
<g><path style="opacity:0.996" fill="#40b8cf" d="M 727.5,459.5 C 768.341,456.553 790.008,475.387 792.5,516C 791.561,546.486 782.061,573.986 764,598.5C 749.928,619.575 731.762,636.075 709.5,648C 703.319,650.462 696.986,652.462 690.5,654C 676.167,653.667 661.833,653.333 647.5,653C 643.888,654.139 640.554,655.806 637.5,658C 633.333,662.167 629.167,666.333 625,670.5C 571.042,735.1 518.042,800.434 466,866.5C 457.122,876.679 446.622,878.846 434.5,873C 426.931,866.504 424.431,858.338 427,848.5C 428.752,845.328 430.752,842.328 433,839.5C 496.496,775.677 558.163,710.344 618,643.5C 622.142,634.588 623.475,625.254 622,615.5C 612.86,592.858 613.526,570.525 624,548.5C 641.11,511.723 667.943,484.557 704.5,467C 712.136,464.016 719.803,461.516 727.5,459.5 Z"/></g>
<g><path style="opacity:0.996" fill="#fbba16" d="M 544.5,781.5 C 567.417,801.24 590.25,821.24 613,841.5C 618.936,850.484 618.936,859.484 613,868.5C 602.71,877.703 591.543,878.869 579.5,872C 560.357,852.522 541.524,832.689 523,812.5C 522.517,811.552 522.351,810.552 522.5,809.5C 529.833,800.167 537.167,790.833 544.5,781.5 Z"/></g>
<g><path style="opacity:0.962" fill="#fab325" d="M 550.5,775.5 C 571.295,793.124 591.961,810.957 612.5,829C 618.288,834.077 622.455,840.244 625,847.5C 627.697,861.087 623.531,871.921 612.5,880C 597.784,886.873 583.784,885.706 570.5,876.5C 552.5,856.5 534.5,836.5 516.5,816.5C 516.5,815.833 516.833,815.5 517.5,815.5C 535.169,833.67 552.336,852.337 569,871.5C 581.57,883.566 595.737,885.733 611.5,878C 622.792,869.79 626.292,858.957 622,845.5C 620.587,842.339 618.92,839.339 617,836.5C 594.306,816.635 571.806,796.635 549.5,776.5C 549.5,775.833 549.833,775.5 550.5,775.5 Z"/></g>
<g><path style="opacity:0.047" fill="#f7f8e4" d="M 430.5,724.5 C 447.108,742.444 464.108,760.11 481.5,777.5C 464.566,795.936 447.066,813.936 429,831.5C 426.667,834.5 424.333,837.5 422,840.5C 415.105,855.798 417.938,868.964 430.5,880C 445.622,887.66 459.122,885.494 471,873.5C 486.031,854.312 501.197,835.312 516.5,816.5C 534.5,836.5 552.5,856.5 570.5,876.5C 568.133,875.836 566.133,874.503 564.5,872.5C 548.511,855.342 532.677,838.009 517,820.5C 501.304,838.203 486.304,856.536 472,875.5C 460.264,886.579 446.764,889.079 431.5,883C 415.041,871.28 411.541,856.446 421,838.5C 439.774,818.057 458.94,797.89 478.5,778C 466.021,763.688 453.021,749.854 439.5,736.5C 436.451,732.463 433.451,728.463 430.5,724.5 Z"/></g>
<g><path style="opacity:0.996" fill="#fcdc7b" d="M 549.5,776.5 C 571.806,796.635 594.306,816.635 617,836.5C 618.92,839.339 620.587,842.339 622,845.5C 626.292,858.957 622.792,869.79 611.5,878C 595.737,885.733 581.57,883.566 569,871.5C 552.336,852.337 535.169,833.67 517.5,815.5C 518.701,813.091 520.367,811.091 522.5,809.5C 522.351,810.552 522.517,811.552 523,812.5C 541.524,832.689 560.357,852.522 579.5,872C 591.543,878.869 602.71,877.703 613,868.5C 618.936,859.484 618.936,850.484 613,841.5C 590.25,821.24 567.417,801.24 544.5,781.5C 545.833,779.5 547.5,777.833 549.5,776.5 Z"/></g>
</svg>
